# xmcd
# 
# Track frame offsets:
#     150
#     14536
#     27185
#     40898
#     50771
#     65150
#     79814
#     95708
#     110292
#     118347
#     133564
#     145752
#     158399
#     171345
#     185088
#     197097
#     206113
#     224565
#     235995
#     245852
#     256946
#     271683
# 
# Disc length: 3765
# 
# Revision: 1
# Processed by: cddbd v1.5.2PL0 Copyright (c) Steve Scherf et al.
# Submitted via: BonkEnc v1.0rc1
# 
DISCID=510eb316
DTITLE=Marshall Family - Collection 2
DYEAR=1999
DGENRE=Bluegrass
TTITLE0=The Glory of Children
TTITLE1=Under the Blood
TTITLE2=The Old Account Settled
TTITLE3=Rejoice My Soul
TTITLE4=Sing Unto the Lord
TTITLE5=He Made It Again 
TTITLE6=My Mother's Prayers
TTITLE7=What A Lovely Name 
TTITLE8=Stand Up For Jesus
TTITLE9=Grace Is Like A Shepherd
TTITLE10=I'm Longing to Go
TTITLE11=Hallelujah For The Blood
TTITLE12=All I Need
TTITLE13=Sacrifice of Love
TTITLE14=Isn't The Love of Jesus Something Wonderful?
TTITLE15=Stand Up 
TTITLE16=Like a River Glorious
TTITLE17=He Set Me Free
TTITLE18=This Could Be the Day
TTITLE19=Secret Place
TTITLE20=The Final Triumph
TTITLE21=Christ The Lord Is Risen Today
EXTD=
EXTT0=
EXTT1=
EXTT2=
EXTT3=
EXTT4=
EXTT5=
EXTT6=
EXTT7=
EXTT8=
EXTT9=
EXTT10=
EXTT11=
EXTT12=
EXTT13=
EXTT14=
EXTT15=
EXTT16=
EXTT17=
EXTT18=
EXTT19=
EXTT20=
EXTT21=
PLAYORDER=
